<svg xmlns="http://www.w3.org/2000/svg" width="120" height="120" viewBox="0 0 120 120" fill="none">
  <rect width="120" height="120" fill="transparent"/>
  <g opacity=".22" stroke="#D4A843" stroke-width="1.5">
    <path d="M20 20C30 8 46 8 56 20C66 32 82 32 92 20"/>
    <path d="M20 60C30 48 46 48 56 60C66 72 82 72 92 60"/>
    <path d="M20 100C30 88 46 88 56 100C66 112 82 112 92 100"/>
    <path d="M20 20C8 30 8 46 20 56C32 66 32 82 20 92"/>
    <path d="M60 20C48 30 48 46 60 56C72 66 72 82 60 92"/>
    <path d="M100 20C88 30 88 46 100 56C112 66 112 82 100 92"/>
  </g>
</svg>
