<svg xmlns="http://www.w3.org/2000/svg" xmlns:xlink="http://www.w3.org/1999/xlink" width="2000" zoomAndPan="magnify" viewBox="0 0 1500 1499.999933" height="2000" preserveAspectRatio="xMidYMid meet" version="1.0"><defs><g/><clipPath id="bc9c6d6f98"><path d="M 203.15625 148 L 1018 148 L 1018 1073 L 203.15625 1073 Z M 203.15625 148 " clip-rule="nonzero"/></clipPath><clipPath id="907b55295d"><path d="M 481 148 L 1296.65625 148 L 1296.65625 1073 L 481 1073 Z M 481 148 " clip-rule="nonzero"/></clipPath><clipPath id="d5bf50e0e5"><rect x="0" width="671" y="0" height="417"/></clipPath><clipPath id="89a4e539a4"><rect x="0" width="660" y="0" height="179"/></clipPath></defs><g clip-path="url(#bc9c6d6f98)"><path fill="#1c1208" d="M 694.777344 165.808594 C 651.417969 154.453125 604.105469 148.703125 552.707031 148.703125 C 439.152344 148.703125 338.757812 186.03125 251.503906 260.683594 C 234.726562 274.328125 234.167969 289.03125 249.960938 304.816406 L 309.882812 367.914062 C 322.464844 380.5 336.167969 381.015625 350.855469 369.460938 C 407.128906 326.726562 468.773438 303.847656 535.816406 300.585938 C 545.339844 287.3125 555.710938 274.15625 566.753906 261.597656 C 602.976562 220.46875 645.550781 188.632812 694.777344 165.808594 M 234.167969 544.511719 C 225.804688 544.511719 218.351562 547.371094 212.117188 553.152344 C 205.78125 558.925781 202.648438 566.074219 202.648438 574.429688 L 202.648438 1022.289062 C 202.648438 1030.703125 205.78125 1037.796875 212.117188 1043.574219 C 218.398438 1049.351562 225.761719 1052.210938 234.171875 1052.210938 L 335.066406 1052.210938 C 345.578125 1052.210938 350.855469 1046.980469 350.855469 1036.480469 L 350.855469 1034.90625 C 350.855469 1032.789062 352.171875 1030.929688 354.816406 1029.382812 C 357.410156 1027.785156 359.785156 1027.527344 361.914062 1028.558594 C 426.011719 1057.988281 489.609375 1072.75 552.710938 1072.75 C 632.582031 1072.75 703.273438 1060.367188 764.789062 1035.65625 C 826.296875 1010.964844 874.921875 977.359375 910.621094 934.769531 C 946.371094 892.179688 973.171875 844.867188 991.046875 792.84375 C 1008.925781 740.78125 1017.820312 684.835938 1017.820312 624.941406 C 1017.820312 515.878906 990.132812 420.460938 934.929688 338.484375 C 872.691406 341.574219 821.546875 362.769531 781.519531 401.921875 C 830.757812 461.847656 855.4375 536.128906 855.4375 624.941406 C 855.4375 705.859375 830.46875 774.964844 780.558594 832.285156 C 730.617188 889.546875 654.648438 918.203125 552.707031 918.203125 C 483.332031 918.203125 421.273438 897.695312 366.644531 856.707031 C 359.28125 852.503906 355.589844 844.613281 355.589844 833.054688 L 355.589844 722.675781 C 355.589844 702.710938 365.601562 692.699219 385.566406 692.699219 L 444.34375 692.699219 C 441.652344 670.703125 440.300781 648.164062 440.300781 624.9375 C 440.300781 597.277344 441.96875 570.421875 445.515625 544.511719 Z M 234.167969 544.511719 " fill-opacity="1" fill-rule="evenodd"/></g><g clip-path="url(#907b55295d)"><path fill="#c7892a" d="M 548.203125 877.675781 C 532.054688 850.929688 518.714844 822.730469 508.445312 792.839844 C 490.566406 740.78125 481.644531 684.835938 481.644531 624.9375 C 481.644531 492.449219 522.359375 379.957031 603.835938 287.484375 C 685.308594 194.953125 799.636719 148.699219 946.769531 148.699219 C 1060.324219 148.699219 1160.722656 186.03125 1247.957031 260.683594 C 1264.777344 274.328125 1265.289062 289.027344 1249.53125 304.816406 L 1189.605469 367.914062 C 1177.023438 380.5 1163.320312 381.011719 1148.621094 369.460938 C 1087.667969 323.179688 1020.394531 300.070312 946.773438 300.070312 C 854.328125 300.070312 780.699219 330.84375 726.027344 392.34375 C 671.382812 453.835938 644.050781 531.351562 644.050781 624.9375 C 644.050781 705.859375 669.023438 774.964844 718.917969 832.285156 C 720.0625 833.597656 721.296875 834.828125 722.464844 836.089844 C 670.878906 866.121094 608.382812 879.535156 548.203125 877.675781 M 1265.289062 544.511719 C 1273.726562 544.511719 1281.078125 547.371094 1287.375 553.152344 C 1293.695312 558.949219 1296.839844 566.074219 1296.839844 574.429688 L 1296.839844 1022.289062 C 1296.839844 1030.703125 1293.695312 1037.796875 1287.375 1043.574219 C 1281.078125 1049.351562 1273.730469 1052.210938 1265.289062 1052.210938 L 1164.410156 1052.210938 C 1153.910156 1052.210938 1148.617188 1046.980469 1148.617188 1036.480469 L 1148.617188 1034.90625 C 1148.617188 1032.789062 1147.300781 1030.929688 1144.671875 1029.382812 C 1142.070312 1027.785156 1139.722656 1027.527344 1137.550781 1028.558594 C 1073.480469 1057.988281 1009.863281 1072.75 946.765625 1072.75 C 894.710938 1072.75 846.800781 1067.226562 802.554688 1056.675781 C 856.984375 1032.644531 900.488281 1001.324219 933.210938 962.226562 C 945.21875 947.953125 956.265625 932.996094 966.21875 917.582031 C 1027.796875 914.0625 1083.34375 893.839844 1132.855469 856.710938 C 1140.210938 852.507812 1143.898438 844.613281 1143.898438 833.054688 L 1143.898438 722.679688 C 1143.898438 702.714844 1133.886719 692.699219 1113.921875 692.699219 L 1053.625 692.699219 C 1056.371094 670.703125 1057.574219 648.167969 1057.574219 624.941406 C 1057.574219 597.222656 1055.773438 570.425781 1052.257812 544.511719 Z M 1265.289062 544.511719 " fill-opacity="1" fill-rule="evenodd"/></g><g transform="matrix(1, 0, 0, 1, 413, 1021)"><g clip-path="url(#d5bf50e0e5)"><g fill="#1c1208" fill-opacity="1"><g transform="translate(3.582269, 270.068083)"><g><path d="M 94.21875 -78.828125 L 133.984375 -78.828125 C 138.421875 -78.828125 140.640625 -76.53125 140.640625 -71.9375 C 140.640625 -69.632812 139.875 -67.945312 138.34375 -66.875 C 134.519531 -65.800781 131.914062 -64.34375 130.53125 -62.5 C 129.15625 -60.664062 128.46875 -57.832031 128.46875 -54 L 128.46875 -22.0625 C 128.46875 -20.988281 128.273438 -19.953125 127.890625 -18.953125 C 127.503906 -17.960938 127.003906 -17.082031 126.390625 -16.3125 C 123.785156 -13.707031 120.453125 -11.023438 116.390625 -8.265625 C 112.335938 -5.515625 107.015625 -3.253906 100.421875 -1.484375 C 93.835938 0.273438 85.335938 1.15625 74.921875 1.15625 C 51.941406 1.15625 35.164062 -5.394531 24.59375 -18.5 C 14.019531 -31.601562 8.734375 -49.875 8.734375 -73.3125 C 8.734375 -96.75 13.976562 -115.015625 24.46875 -128.109375 C 34.96875 -141.210938 51.328125 -147.765625 73.546875 -147.765625 C 86.710938 -147.765625 97.316406 -145.847656 105.359375 -142.015625 C 113.410156 -138.191406 119.273438 -132.984375 122.953125 -126.390625 C 126.628906 -119.804688 128.46875 -112.453125 128.46875 -104.328125 C 128.46875 -100.960938 127.351562 -98.164062 125.125 -95.9375 C 122.90625 -93.71875 119.804688 -92.609375 115.828125 -92.609375 C 112.148438 -92.609375 109.082031 -93.523438 106.625 -95.359375 C 104.175781 -97.203125 102.953125 -100.191406 102.953125 -104.328125 C 102.953125 -112.910156 100.65625 -119.804688 96.0625 -125.015625 C 91.46875 -130.222656 83.960938 -132.828125 73.546875 -132.828125 C 60.671875 -132.828125 51.4375 -127.804688 45.84375 -117.765625 C 40.25 -107.734375 37.453125 -92.914062 37.453125 -73.3125 C 37.453125 -53.851562 40.671875 -39.066406 47.109375 -28.953125 C 53.546875 -18.835938 64.117188 -13.78125 78.828125 -13.78125 C 83.421875 -13.78125 87.441406 -14.28125 90.890625 -15.28125 C 94.335938 -16.28125 97.285156 -17.546875 99.734375 -19.078125 L 99.734375 -54.46875 C 99.585938 -58.144531 98.863281 -60.863281 97.5625 -62.625 C 96.257812 -64.382812 93.769531 -65.800781 90.09375 -66.875 C 88.25 -68.25 87.328125 -69.9375 87.328125 -71.9375 C 87.328125 -76.53125 89.625 -78.828125 94.21875 -78.828125 Z M 94.21875 -78.828125 "/></g></g></g><g fill="#1c1208" fill-opacity="1"><g transform="translate(140.745444, 270.068083)"><g><path d="M 113.0625 -35.15625 L 113.296875 -7.359375 C 113.296875 -5.515625 112.601562 -3.828125 111.21875 -2.296875 C 109.84375 -0.765625 108.082031 0 105.9375 0 L 14.9375 0 C 13.101562 0 11.609375 -0.609375 10.453125 -1.828125 C 9.304688 -3.054688 8.734375 -4.671875 8.734375 -6.671875 C 8.734375 -8.347656 9.078125 -9.6875 9.765625 -10.6875 C 10.453125 -11.6875 11.410156 -12.71875 12.640625 -13.78125 C 12.640625 -13.78125 14.285156 -15.160156 17.578125 -17.921875 C 20.867188 -20.679688 25.117188 -24.472656 30.328125 -29.296875 C 35.546875 -34.128906 41.023438 -39.6875 46.765625 -45.96875 C 52.515625 -52.25 57.992188 -58.945312 63.203125 -66.0625 C 68.410156 -73.1875 72.660156 -80.425781 75.953125 -87.78125 C 79.242188 -95.132812 80.890625 -102.1875 80.890625 -108.9375 C 80.890625 -124.25 74.226562 -131.90625 60.90625 -131.90625 C 54.3125 -131.90625 49.132812 -129.796875 45.375 -125.578125 C 41.625 -121.367188 39.75 -115.359375 39.75 -107.546875 C 39.75 -104.179688 38.710938 -101.269531 36.640625 -98.8125 C 34.578125 -96.363281 31.328125 -95.140625 26.890625 -95.140625 C 22.753906 -95.140625 19.648438 -96.363281 17.578125 -98.8125 C 15.515625 -101.269531 14.484375 -104.179688 14.484375 -107.546875 C 14.484375 -120.722656 18.578125 -130.566406 26.765625 -137.078125 C 34.960938 -143.585938 46.570312 -146.84375 61.59375 -146.84375 C 77.976562 -146.84375 90.078125 -143.664062 97.890625 -137.3125 C 105.710938 -130.957031 109.625 -121.035156 109.625 -107.546875 C 109.625 -100.046875 107.9375 -92.769531 104.5625 -85.71875 C 101.195312 -78.675781 96.789062 -71.9375 91.34375 -65.5 C 85.90625 -59.0625 79.929688 -53.082031 73.421875 -47.5625 C 66.910156 -42.050781 60.4375 -37.070312 54 -32.625 C 47.570312 -28.1875 41.753906 -24.4375 36.546875 -21.375 L 70.09375 -21.375 C 78.976562 -21.375 85.71875 -22.789062 90.3125 -25.625 C 94.90625 -28.457031 98.582031 -33.09375 101.34375 -39.53125 C 102.570312 -41.21875 104.257812 -42.0625 106.40625 -42.0625 C 110.84375 -42.0625 113.0625 -39.757812 113.0625 -35.15625 Z M 113.0625 -35.15625 "/></g></g></g><g fill="#1c1208" fill-opacity="1"><g transform="translate(254.473233, 270.068083)"><g><path d="M 13.78125 -144.78125 L 73.546875 -144.78125 C 93.609375 -144.78125 107.773438 -141.175781 116.046875 -133.96875 C 124.328125 -126.769531 128.46875 -116.125 128.46875 -102.03125 C 128.46875 -86.101562 124.328125 -74.15625 116.046875 -66.1875 C 107.773438 -58.21875 93.609375 -54.234375 73.546875 -54.234375 L 47.796875 -54.234375 L 47.796875 -25.046875 C 47.796875 -21.210938 48.484375 -18.375 49.859375 -16.53125 C 51.242188 -14.695312 53.851562 -13.171875 57.6875 -11.953125 C 59.363281 -10.722656 60.203125 -9.035156 60.203125 -6.890625 C 60.203125 -2.296875 57.90625 0 53.3125 0 L 13.78125 0 C 9.1875 0 6.890625 -2.296875 6.890625 -6.890625 C 6.890625 -9.191406 7.734375 -10.878906 9.421875 -11.953125 C 13.253906 -13.171875 15.820312 -14.695312 17.125 -16.53125 C 18.425781 -18.375 19.078125 -21.210938 19.078125 -25.046875 L 19.078125 -119.96875 C 19.078125 -123.789062 18.425781 -126.582031 17.125 -128.34375 C 15.820312 -130.113281 13.253906 -131.609375 9.421875 -132.828125 C 7.734375 -134.054688 6.890625 -135.742188 6.890625 -137.890625 C 6.890625 -142.484375 9.1875 -144.78125 13.78125 -144.78125 Z M 47.796875 -69.171875 L 69.640625 -69.171875 C 80.054688 -69.171875 87.675781 -71.695312 92.5 -76.75 C 97.320312 -81.8125 99.734375 -89.628906 99.734375 -100.203125 C 99.734375 -110.160156 97.320312 -117.585938 92.5 -122.484375 C 87.675781 -127.390625 80.054688 -129.84375 69.640625 -129.84375 L 47.796875 -129.84375 Z M 47.796875 -69.171875 "/></g></g></g><g fill="#1c1208" fill-opacity="1"><g transform="translate(380.837753, 270.068083)"><g><path d="M 144.328125 -13.09375 C 146.773438 -11.257812 148 -9.191406 148 -6.890625 C 148 -2.296875 145.703125 0 141.109375 0 L 121.109375 0 C 117.742188 0 114.832031 -0.878906 112.375 -2.640625 C 109.925781 -4.398438 107.859375 -6.507812 106.171875 -8.96875 L 86.171875 -41.828125 C 83.722656 -45.503906 80.925781 -48.488281 77.78125 -50.78125 C 74.644531 -53.082031 70.394531 -54.234375 65.03125 -54.234375 L 47.796875 -54.234375 L 47.796875 -25.046875 C 47.796875 -21.210938 48.484375 -18.375 49.859375 -16.53125 C 51.242188 -14.695312 53.851562 -13.171875 57.6875 -11.953125 C 59.363281 -10.722656 60.203125 -9.035156 60.203125 -6.890625 C 60.203125 -2.296875 57.90625 0 53.3125 0 L 13.78125 0 C 9.1875 0 6.890625 -2.296875 6.890625 -6.890625 C 6.890625 -9.191406 7.734375 -10.878906 9.421875 -11.953125 C 13.253906 -13.171875 15.820312 -14.695312 17.125 -16.53125 C 18.425781 -18.375 19.078125 -21.210938 19.078125 -25.046875 L 19.078125 -119.96875 C 19.078125 -123.789062 18.425781 -126.582031 17.125 -128.34375 C 15.820312 -130.113281 13.253906 -131.609375 9.421875 -132.828125 C 7.734375 -134.054688 6.890625 -135.742188 6.890625 -137.890625 C 6.890625 -142.484375 9.1875 -144.78125 13.78125 -144.78125 L 73.546875 -144.78125 C 93.609375 -144.78125 107.773438 -141.296875 116.046875 -134.328125 C 124.328125 -127.359375 128.46875 -117.128906 128.46875 -103.640625 C 128.46875 -92.765625 126.472656 -83.800781 122.484375 -76.75 C 118.503906 -69.707031 111.914062 -64.65625 102.71875 -61.59375 C 107.46875 -58.675781 111.53125 -54.539062 114.90625 -49.1875 L 129.15625 -25.96875 C 132.0625 -21.375 134.472656 -18.3125 136.390625 -16.78125 C 138.304688 -15.25 140.953125 -14.019531 144.328125 -13.09375 Z M 99.734375 -100.203125 C 99.734375 -110.160156 97.320312 -117.585938 92.5 -122.484375 C 87.675781 -127.390625 80.054688 -129.84375 69.640625 -129.84375 L 47.796875 -129.84375 L 47.796875 -69.171875 L 69.640625 -69.171875 C 80.054688 -69.171875 87.675781 -71.695312 92.5 -76.75 C 97.320312 -81.8125 99.734375 -89.628906 99.734375 -100.203125 Z M 99.734375 -100.203125 "/></g></g></g><g fill="#1c1208" fill-opacity="1"><g transform="translate(522.825904, 270.068083)"><g><path d="M 73.765625 1.84375 C 52.015625 1.84375 35.738281 -4.550781 24.9375 -17.34375 C 14.132812 -30.144531 8.734375 -48.570312 8.734375 -72.625 C 8.734375 -96.832031 14.132812 -115.289062 24.9375 -128 C 35.738281 -140.71875 52.015625 -147.078125 73.765625 -147.078125 C 95.679688 -147.078125 112 -140.71875 122.71875 -128 C 133.445312 -115.289062 138.8125 -96.832031 138.8125 -72.625 C 138.8125 -48.414062 133.445312 -29.953125 122.71875 -17.234375 C 112 -4.515625 95.679688 1.84375 73.765625 1.84375 Z M 73.765625 -13.09375 C 86.023438 -13.09375 95.140625 -17.84375 101.109375 -27.34375 C 107.085938 -36.84375 110.078125 -51.9375 110.078125 -72.625 C 110.078125 -93.15625 107.085938 -108.164062 101.109375 -117.65625 C 95.140625 -127.15625 86.023438 -131.90625 73.765625 -131.90625 C 61.660156 -131.90625 52.582031 -127.15625 46.53125 -117.65625 C 40.476562 -108.164062 37.453125 -93.15625 37.453125 -72.625 C 37.453125 -52.09375 40.476562 -37.035156 46.53125 -27.453125 C 52.582031 -17.878906 61.660156 -13.09375 73.765625 -13.09375 Z M 73.765625 -13.09375 "/></g></g></g></g></g><g transform="matrix(1, 0, 0, 1, 432, 1288)"><g clip-path="url(#89a4e539a4)"><g fill="#c7892a" fill-opacity="1"><g transform="translate(2.348493, 112.451862)"><g><path d="M 27.53125 0.296875 C 19.25 0.296875 13.21875 -0.976562 9.4375 -3.53125 C 5.664062 -6.082031 3.78125 -9.476562 3.78125 -13.71875 C 3.78125 -15.632812 4.257812 -17.140625 5.21875 -18.234375 C 6.175781 -19.328125 7.582031 -19.875 9.4375 -19.875 C 11.363281 -19.875 12.738281 -19.410156 13.5625 -18.484375 C 14.394531 -17.554688 14.8125 -16.5 14.8125 -15.3125 C 14.8125 -12.65625 15.835938 -10.460938 17.890625 -8.734375 C 19.941406 -7.015625 23.054688 -6.15625 27.234375 -6.15625 C 31.410156 -6.15625 34.507812 -7.132812 36.53125 -9.09375 C 38.550781 -11.050781 39.5625 -13.648438 39.5625 -16.890625 C 39.5625 -19.410156 38.945312 -21.398438 37.71875 -22.859375 C 36.488281 -24.316406 34.484375 -25.410156 31.703125 -26.140625 L 19.078125 -29.421875 C 14.179688 -30.742188 10.554688 -32.8125 8.203125 -35.625 C 5.847656 -38.445312 4.671875 -41.945312 4.671875 -46.125 C 4.671875 -51.945312 6.554688 -56.398438 10.328125 -59.484375 C 14.109375 -62.566406 20.007812 -64.109375 28.03125 -64.109375 C 33.132812 -64.109375 37.289062 -63.441406 40.5 -62.109375 C 43.71875 -60.785156 46.070312 -59.03125 47.5625 -56.84375 C 49.050781 -54.664062 49.796875 -52.316406 49.796875 -49.796875 C 49.796875 -45.816406 48.003906 -43.828125 44.421875 -43.828125 C 42.640625 -43.828125 41.25 -44.257812 40.25 -45.125 C 39.257812 -45.988281 38.765625 -47.148438 38.765625 -48.609375 C 38.765625 -51.253906 37.851562 -53.40625 36.03125 -55.0625 C 34.207031 -56.71875 31.539062 -57.546875 28.03125 -57.546875 C 24.582031 -57.546875 21.894531 -56.734375 19.96875 -55.109375 C 18.050781 -53.484375 17.09375 -51.316406 17.09375 -48.609375 C 17.09375 -46.285156 17.6875 -44.34375 18.875 -42.78125 C 20.070312 -41.226562 22 -40.085938 24.65625 -39.359375 L 37.265625 -36.078125 C 42.566406 -34.617188 46.34375 -32.53125 48.59375 -29.8125 C 50.851562 -27.09375 51.984375 -23.382812 51.984375 -18.6875 C 51.984375 -14.976562 51.171875 -11.695312 49.546875 -8.84375 C 47.921875 -6 45.316406 -3.765625 41.734375 -2.140625 C 38.160156 -0.515625 33.425781 0.296875 27.53125 0.296875 Z M 27.53125 0.296875 "/></g></g></g><g fill="#c7892a" fill-opacity="1"><g transform="translate(82.948639, 112.451862)"><g><path d="M 44.921875 -22.46875 C 44.921875 -20.476562 44.0625 -19.484375 42.34375 -19.484375 L 15.703125 -19.484375 C 16.097656 -14.441406 17.351562 -10.773438 19.46875 -8.484375 C 21.59375 -6.203125 24.476562 -5.0625 28.125 -5.0625 C 30.445312 -5.0625 32.351562 -5.492188 33.84375 -6.359375 C 35.332031 -7.222656 36.609375 -8.285156 37.671875 -9.546875 C 38.398438 -10.398438 39.128906 -10.875 39.859375 -10.96875 C 40.585938 -11.070312 41.28125 -10.925781 41.9375 -10.53125 C 43.726562 -9.46875 44.0625 -8.046875 42.9375 -6.265625 C 41.414062 -4.003906 39.394531 -2.257812 36.875 -1.03125 C 34.351562 0.1875 31.070312 0.796875 27.03125 0.796875 C 19.414062 0.796875 13.632812 -1.207031 9.6875 -5.21875 C 5.75 -9.226562 3.78125 -14.976562 3.78125 -22.46875 C 3.78125 -29.945312 5.46875 -35.691406 8.84375 -39.703125 C 12.226562 -43.710938 17.429688 -45.71875 24.453125 -45.71875 C 31.941406 -45.71875 37.222656 -43.710938 40.296875 -39.703125 C 43.378906 -35.691406 44.921875 -29.945312 44.921875 -22.46875 Z M 25.046875 -39.75 C 21.929688 -39.75 19.628906 -38.585938 18.140625 -36.265625 C 16.648438 -33.953125 15.804688 -30.3125 15.609375 -25.34375 L 34.484375 -25.34375 C 34.222656 -30.445312 33.328125 -34.125 31.796875 -36.375 C 30.273438 -38.625 28.023438 -39.75 25.046875 -39.75 Z M 25.046875 -39.75 "/></g></g></g><g fill="#c7892a" fill-opacity="1"><g transform="translate(156.492551, 112.451862)"><g><path d="M 52.96875 -5.171875 C 53.632812 -4.640625 53.96875 -3.910156 53.96875 -2.984375 C 53.96875 -0.992188 52.972656 0 50.984375 0 L 39.953125 0 C 39.085938 0 38.34375 -0.3125 37.71875 -0.9375 C 37.09375 -1.570312 36.78125 -2.320312 36.78125 -3.1875 L 36.78125 -32.40625 C 36.78125 -34.65625 36.25 -36.425781 35.1875 -37.71875 C 34.125 -39.007812 32.300781 -39.65625 29.71875 -39.65625 C 26.863281 -39.65625 24.554688 -38.546875 22.796875 -36.328125 C 21.046875 -34.109375 20.171875 -30.941406 20.171875 -26.828125 L 20.078125 -10.828125 C 20.140625 -9.171875 20.46875 -7.945312 21.0625 -7.15625 C 21.664062 -6.363281 22.796875 -5.703125 24.453125 -5.171875 C 25.109375 -4.640625 25.4375 -3.910156 25.4375 -2.984375 C 25.4375 -0.992188 24.445312 0 22.46875 0 L 5.96875 0 C 3.976562 0 2.984375 -0.992188 2.984375 -2.984375 C 2.984375 -3.972656 3.347656 -4.703125 4.078125 -5.171875 C 5.734375 -5.703125 6.84375 -6.363281 7.40625 -7.15625 C 7.96875 -7.945312 8.25 -9.171875 8.25 -10.828125 L 8.25 -31.90625 C 8.25 -33.5 7.96875 -34.65625 7.40625 -35.375 C 6.84375 -36.101562 5.765625 -36.671875 4.171875 -37.078125 C 3.710938 -37.398438 3.398438 -37.757812 3.234375 -38.15625 C 3.066406 -38.5625 2.984375 -39.03125 2.984375 -39.5625 C 2.984375 -40.289062 3.179688 -40.867188 3.578125 -41.296875 C 3.972656 -41.722656 4.4375 -42.035156 4.96875 -42.234375 L 15.703125 -45.421875 C 15.960938 -45.484375 16.191406 -45.53125 16.390625 -45.5625 C 16.597656 -45.601562 16.800781 -45.625 17 -45.625 C 19.113281 -45.625 20.171875 -44.597656 20.171875 -42.546875 L 20.171875 -38.96875 C 23.085938 -43.40625 27.660156 -45.625 33.890625 -45.625 C 43.765625 -45.625 48.703125 -40.65625 48.703125 -30.71875 L 48.609375 -11.03125 C 48.609375 -9.238281 48.921875 -7.945312 49.546875 -7.15625 C 50.171875 -6.363281 51.3125 -5.703125 52.96875 -5.171875 Z M 52.96875 -5.171875 "/></g></g></g><g fill="#c7892a" fill-opacity="1"><g transform="translate(237.390874, 112.451862)"><g><path d="M 14.21875 -53.671875 C 11.957031 -53.671875 10.195312 -54.300781 8.9375 -55.5625 C 7.6875 -56.820312 7.0625 -58.578125 7.0625 -60.828125 C 7.0625 -63.148438 7.6875 -64.921875 8.9375 -66.140625 C 10.195312 -67.367188 11.957031 -67.984375 14.21875 -67.984375 C 16.53125 -67.984375 18.300781 -67.335938 19.53125 -66.046875 C 20.757812 -64.753906 21.375 -63.015625 21.375 -60.828125 C 21.375 -58.578125 20.757812 -56.820312 19.53125 -55.5625 C 18.300781 -54.300781 16.53125 -53.671875 14.21875 -53.671875 Z M 22.5625 0 L 5.859375 0 C 3.941406 0 2.984375 -0.992188 2.984375 -2.984375 C 2.984375 -3.910156 3.347656 -4.640625 4.078125 -5.171875 C 5.734375 -5.703125 6.859375 -6.363281 7.453125 -7.15625 C 8.046875 -7.945312 8.34375 -9.171875 8.34375 -10.828125 L 8.34375 -31.90625 C 8.34375 -33.5 8.0625 -34.65625 7.5 -35.375 C 6.9375 -36.101562 5.828125 -36.671875 4.171875 -37.078125 C 3.378906 -37.609375 2.984375 -38.4375 2.984375 -39.5625 C 2.984375 -40.289062 3.179688 -40.867188 3.578125 -41.296875 C 3.972656 -41.722656 4.4375 -42.035156 4.96875 -42.234375 L 15.796875 -45.421875 C 15.992188 -45.484375 16.191406 -45.53125 16.390625 -45.5625 C 16.597656 -45.601562 16.800781 -45.625 17 -45.625 C 19.113281 -45.625 20.171875 -44.597656 20.171875 -42.546875 L 20.171875 -10.828125 C 20.171875 -9.171875 20.453125 -7.945312 21.015625 -7.15625 C 21.578125 -6.363281 22.6875 -5.703125 24.34375 -5.171875 C 25.144531 -4.703125 25.546875 -3.972656 25.546875 -2.984375 C 25.546875 -0.992188 24.550781 0 22.5625 0 Z M 22.5625 0 "/></g></g></g><g fill="#c7892a" fill-opacity="1"><g transform="translate(289.766087, 112.451862)"><g><path d="M 52.484375 0 L 5.96875 0 C 3.976562 0 2.984375 -0.992188 2.984375 -2.984375 C 2.984375 -3.972656 3.347656 -4.703125 4.078125 -5.171875 C 5.660156 -5.703125 6.75 -6.347656 7.34375 -7.109375 C 7.945312 -7.867188 8.28125 -8.976562 8.34375 -10.4375 L 8.34375 -51.78125 C 8.34375 -53.5 8.0625 -54.738281 7.5 -55.5 C 6.9375 -56.269531 5.796875 -56.921875 4.078125 -57.453125 C 3.347656 -57.910156 2.984375 -58.640625 2.984375 -59.640625 C 2.984375 -61.617188 3.976562 -62.609375 5.96875 -62.609375 L 23.0625 -62.609375 C 25.050781 -62.609375 26.046875 -61.617188 26.046875 -59.640625 C 26.046875 -58.710938 25.710938 -57.984375 25.046875 -57.453125 C 23.390625 -56.921875 22.257812 -56.269531 21.65625 -55.5 C 21.0625 -54.738281 20.765625 -53.5 20.765625 -51.78125 L 20.765625 -6.453125 L 36.96875 -6.453125 C 40.882812 -6.453125 43.816406 -7.046875 45.765625 -8.234375 C 47.722656 -9.429688 49.265625 -11.425781 50.390625 -14.21875 C 50.984375 -15.007812 51.742188 -15.40625 52.671875 -15.40625 C 53.597656 -15.40625 54.328125 -15.1875 54.859375 -14.75 C 55.390625 -14.320312 55.65625 -13.546875 55.65625 -12.421875 L 55.65625 -3.1875 C 55.65625 -2.382812 55.359375 -1.648438 54.765625 -0.984375 C 54.171875 -0.328125 53.410156 0 52.484375 0 Z M 52.484375 0 "/></g></g></g><g fill="#c7892a" fill-opacity="1"><g transform="translate(371.260701, 112.451862)"><g><path d="M 26.140625 0.796875 C 18.648438 0.796875 13.050781 -1.238281 9.34375 -5.3125 C 5.632812 -9.394531 3.78125 -15.113281 3.78125 -22.46875 C 3.78125 -29.882812 5.632812 -35.613281 9.34375 -39.65625 C 13.050781 -43.695312 18.648438 -45.71875 26.140625 -45.71875 C 33.691406 -45.71875 39.320312 -43.695312 43.03125 -39.65625 C 46.75 -35.613281 48.609375 -29.882812 48.609375 -22.46875 C 48.609375 -15.113281 46.75 -9.394531 43.03125 -5.3125 C 39.320312 -1.238281 33.691406 0.796875 26.140625 0.796875 Z M 26.140625 -5.0625 C 29.710938 -5.0625 32.378906 -6.40625 34.140625 -9.09375 C 35.898438 -11.78125 36.78125 -16.238281 36.78125 -22.46875 C 36.78125 -28.695312 35.898438 -33.132812 34.140625 -35.78125 C 32.378906 -38.425781 29.710938 -39.75 26.140625 -39.75 C 22.628906 -39.75 19.992188 -38.425781 18.234375 -35.78125 C 16.484375 -33.132812 15.609375 -28.695312 15.609375 -22.46875 C 15.609375 -16.238281 16.484375 -11.78125 18.234375 -9.09375 C 19.992188 -6.40625 22.628906 -5.0625 26.140625 -5.0625 Z M 26.140625 -5.0625 "/></g></g></g><g fill="#c7892a" fill-opacity="1"><g transform="translate(448.481816, 112.451862)"><g><path d="M 54.359375 -5.671875 C 55.554688 -5.203125 56.15625 -4.304688 56.15625 -2.984375 C 56.15625 -2.253906 55.921875 -1.570312 55.453125 -0.9375 C 54.992188 -0.3125 54.234375 0 53.171875 0 L 35.984375 0 C 34.054688 0 33.09375 -0.925781 33.09375 -2.78125 C 33.09375 -3.507812 33.257812 -4.085938 33.59375 -4.515625 C 33.925781 -4.953125 34.257812 -5.335938 34.59375 -5.671875 C 36.25 -5.992188 37.140625 -6.46875 37.265625 -7.09375 C 37.398438 -7.726562 36.90625 -8.84375 35.78125 -10.4375 L 28.625 -20.578125 L 19.28125 -11.03125 L 19.28125 -10.828125 C 19.28125 -9.171875 19.578125 -7.945312 20.171875 -7.15625 C 20.773438 -6.363281 21.90625 -5.703125 23.5625 -5.171875 C 24.21875 -4.640625 24.546875 -3.910156 24.546875 -2.984375 C 24.546875 -0.992188 23.550781 0 21.5625 0 L 5.0625 0 C 3.082031 0 2.09375 -0.992188 2.09375 -2.984375 C 2.09375 -3.910156 2.457031 -4.640625 3.1875 -5.171875 C 4.84375 -5.703125 5.953125 -6.363281 6.515625 -7.15625 C 7.078125 -7.945312 7.359375 -9.171875 7.359375 -10.828125 L 7.359375 -54.265625 C 7.359375 -55.859375 7.078125 -57.019531 6.515625 -57.75 C 5.953125 -58.476562 4.875 -59.039062 3.28125 -59.4375 C 2.8125 -59.769531 2.492188 -60.117188 2.328125 -60.484375 C 2.171875 -60.847656 2.09375 -61.328125 2.09375 -61.921875 C 2.09375 -62.648438 2.289062 -63.226562 2.6875 -63.65625 C 3.082031 -64.09375 3.546875 -64.410156 4.078125 -64.609375 L 14.8125 -67.78125 C 15.070312 -67.851562 15.300781 -67.90625 15.5 -67.9375 C 15.695312 -67.96875 15.894531 -67.984375 16.09375 -67.984375 C 18.21875 -67.984375 19.28125 -66.957031 19.28125 -64.90625 L 19.28125 -19.578125 L 32 -32.796875 C 33.726562 -34.523438 34.523438 -35.785156 34.390625 -36.578125 C 34.253906 -37.367188 33.226562 -38.097656 31.3125 -38.765625 C 30.976562 -39.097656 30.59375 -39.523438 30.15625 -40.046875 C 29.726562 -40.578125 29.515625 -41.144531 29.515625 -41.75 C 29.515625 -43.726562 30.476562 -44.71875 32.40625 -44.71875 L 50.09375 -44.71875 C 52.082031 -44.71875 53.078125 -43.726562 53.078125 -41.75 C 53.078125 -41.144531 52.859375 -40.546875 52.421875 -39.953125 C 51.992188 -39.359375 51.316406 -38.960938 50.390625 -38.765625 C 48.734375 -38.628906 47.273438 -38.226562 46.015625 -37.5625 C 44.753906 -36.90625 43.128906 -35.515625 41.140625 -33.390625 L 36.375 -28.53125 L 48 -10.9375 C 49.457031 -8.945312 50.535156 -7.648438 51.234375 -7.046875 C 51.929688 -6.453125 52.972656 -5.992188 54.359375 -5.671875 Z M 54.359375 -5.671875 "/></g></g></g><g fill="#c7892a" fill-opacity="1"><g transform="translate(530.473328, 112.451862)"><g><path d="M 48.40625 -5.171875 C 49.132812 -4.640625 49.5 -3.910156 49.5 -2.984375 C 49.5 -0.992188 48.503906 0 46.515625 0 L 38.5625 0 C 36.90625 0 35.476562 -0.5625 34.28125 -1.6875 C 33.09375 -2.8125 32.429688 -4.171875 32.296875 -5.765625 C 29.316406 -1.390625 24.21875 0.796875 17 0.796875 C 12.757812 0.796875 9.492188 -0.210938 7.203125 -2.234375 C 4.921875 -4.253906 3.78125 -7.054688 3.78125 -10.640625 C 3.78125 -14.148438 4.769531 -17.097656 6.75 -19.484375 C 8.738281 -21.867188 12.054688 -23.457031 16.703125 -24.25 L 26.34375 -25.84375 C 30.3125 -26.570312 32.296875 -28.957031 32.296875 -33 C 32.296875 -34.789062 31.648438 -36.347656 30.359375 -37.671875 C 29.066406 -38.992188 27.097656 -39.65625 24.453125 -39.65625 C 21.867188 -39.65625 19.976562 -38.941406 18.78125 -37.515625 C 17.59375 -36.097656 17 -34.492188 17 -32.703125 C 17 -29.847656 15.273438 -28.421875 11.828125 -28.421875 C 10.234375 -28.421875 8.9375 -28.785156 7.9375 -29.515625 C 6.945312 -30.242188 6.453125 -31.304688 6.453125 -32.703125 C 6.453125 -36.472656 8.039062 -39.582031 11.21875 -42.03125 C 14.40625 -44.488281 18.816406 -45.71875 24.453125 -45.71875 C 30.878906 -45.71875 35.765625 -44.425781 39.109375 -41.84375 C 42.453125 -39.257812 44.125 -35.648438 44.125 -31.015625 L 44.125 -11.03125 C 44.125 -9.238281 44.421875 -7.945312 45.015625 -7.15625 C 45.617188 -6.363281 46.75 -5.703125 48.40625 -5.171875 Z M 22.5625 -5.0625 C 25.675781 -5.0625 28.078125 -6.15625 29.765625 -8.34375 C 31.453125 -10.53125 32.296875 -13.710938 32.296875 -17.890625 L 32.296875 -21.375 C 31.242188 -20.84375 30.085938 -20.476562 28.828125 -20.28125 L 22.265625 -19.1875 C 19.941406 -18.789062 18.25 -17.894531 17.1875 -16.5 C 16.132812 -15.101562 15.609375 -13.414062 15.609375 -11.4375 C 15.609375 -9.707031 16.15625 -8.210938 17.25 -6.953125 C 18.34375 -5.691406 20.113281 -5.0625 22.5625 -5.0625 Z M 22.5625 -5.0625 "/></g></g></g><g fill="#c7892a" fill-opacity="1"><g transform="translate(606.899368, 112.451862)"><g><path d="M 21.5625 0 L 4.96875 0 C 2.976562 0 1.984375 -0.992188 1.984375 -2.984375 C 2.117188 -3.972656 2.484375 -4.703125 3.078125 -5.171875 C 4.734375 -5.703125 5.859375 -6.363281 6.453125 -7.15625 C 7.054688 -7.945312 7.359375 -9.171875 7.359375 -10.828125 L 7.359375 -54.265625 C 7.359375 -55.859375 7.078125 -57.019531 6.515625 -57.75 C 5.953125 -58.476562 4.84375 -59.039062 3.1875 -59.4375 C 2.382812 -59.96875 1.984375 -60.796875 1.984375 -61.921875 C 1.984375 -62.648438 2.179688 -63.226562 2.578125 -63.65625 C 2.984375 -64.09375 3.445312 -64.410156 3.96875 -64.609375 L 14.8125 -67.78125 C 15.34375 -67.914062 15.769531 -67.984375 16.09375 -67.984375 C 18.15625 -67.984375 19.1875 -66.957031 19.1875 -64.90625 L 19.1875 -10.828125 C 19.1875 -9.171875 19.484375 -7.945312 20.078125 -7.15625 C 20.671875 -6.363281 21.796875 -5.703125 23.453125 -5.171875 C 24.179688 -4.640625 24.546875 -3.910156 24.546875 -2.984375 C 24.546875 -0.992188 23.550781 0 21.5625 0 Z M 21.5625 0 "/></g></g></g></g></g></svg>